<svg id="Layer_1" enable-background="new 0 0 256 256" height="512" viewBox="0 0 256 256" width="512" xmlns="http://www.w3.org/2000/svg"><g><g><path d="m58.333 55.165v-36.85c0-5.523 4.477-10 10-10h119.333c5.523 0 10 4.477 10 10v36.85c0 5.523-4.477 10-10 10h-119.333c-5.523 0-10-4.477-10-10z" fill="#fc5d3d"/></g><g><path d="m69.333 19.314h117.333v34.85h-117.333z" fill="#fff"/></g><g><path d="m162.333 131.773h-68.666c-2.761 0-5-2.239-5-5v-13.814c0-2.761 2.239-5 5-5h68.667c2.761 0 5 2.239 5 5v13.814c-.001 2.762-2.239 5-5.001 5z" fill="#72c1e8"/></g><g><path d="m153.156 170.411h-32.174c-2.761 0-5-2.239-5-5v-9.346c0-2.761 2.239-5 5-5h32.174c2.761 0 5 2.239 5 5v9.346c0 2.761-2.239 5-5 5z" fill="#f0c020"/></g><g><path d="m124.75 164.979c-1.381 0-2.5-1.119-2.5-2.5v-3.483c0-1.381 1.119-2.5 2.5-2.5s2.5 1.119 2.5 2.5v3.483c0 1.381-1.119 2.5-2.5 2.5z" fill="#f9e5af"/></g><g><path d="m153.156 209.048h-32.174c-2.761 0-5-2.239-5-5v-9.346c0-2.761 2.239-5 5-5h32.174c2.761 0 5 2.239 5 5v9.346c0 2.761-2.239 5-5 5z" fill="#f0c020"/></g><g><path d="m124.75 203.75c-1.381 0-2.5-1.119-2.5-2.5v-3.75c0-1.381 1.119-2.5 2.5-2.5s2.5 1.119 2.5 2.5v3.75c0 1.381-1.119 2.5-2.5 2.5z" fill="#f9e5af"/></g><g><path d="m153.156 247.685h-32.174c-2.761 0-5-2.239-5-5v-9.346c0-2.761 2.239-5 5-5h32.174c2.761 0 5 2.239 5 5v9.346c0 2.762-2.239 5-5 5z" fill="#f0c020"/></g><g><path d="m147.75 242.667h-23c-1.381 0-2.5-1.119-2.5-2.5v-5.167c0-1.381 1.119-2.5 2.5-2.5s2.5 1.119 2.5 2.5v2.667h20.5c1.381 0 2.5 1.119 2.5 2.5s-1.119 2.5-2.5 2.5z" fill="#f9e5af"/></g><g><path d="m58 131.773h-50c-2.761 0-5-2.239-5-5v-13.814c0-2.761 2.239-5 5-5h50c2.761 0 5 2.239 5 5v13.814c0 2.762-2.239 5-5 5z" fill="#72c1e8"/></g><g><path d="m248 131.773h-50c-2.761 0-5-2.239-5-5v-13.814c0-2.761 2.239-5 5-5h50c2.761 0 5 2.239 5 5v13.814c0 2.762-2.239 5-5 5z" fill="#72c1e8"/></g><g><path d="m51 170.411h-22.167c-2.761 0-5-2.239-5-5v-9.346c0-2.761 2.239-5 5-5h22.167c2.761 0 5 2.239 5 5v9.346c0 2.761-2.239 5-5 5z" fill="#f0c020"/></g><g><path d="m51 209.048h-22.167c-2.761 0-5-2.239-5-5v-9.346c0-2.761 2.239-5 5-5h22.167c2.761 0 5 2.239 5 5v9.346c0 2.761-2.239 5-5 5z" fill="#f0c020"/></g><g><path d="m241 170.411h-22.167c-2.761 0-5-2.239-5-5v-9.346c0-2.761 2.239-5 5-5h22.167c2.761 0 5 2.239 5 5v9.346c0 2.761-2.239 5-5 5z" fill="#f0c020"/></g><g><path d="m241 209.048h-22.167c-2.761 0-5-2.239-5-5v-9.346c0-2.761 2.239-5 5-5h22.167c2.761 0 5 2.239 5 5v9.346c0 2.761-2.239 5-5 5z" fill="#f0c020"/></g><g><path d="m97.5 39.24h61c1.381 0 2.5-1.119 2.5-2.5s-1.119-2.5-2.5-2.5h-61c-1.381 0-2.5 1.119-2.5 2.5s1.119 2.5 2.5 2.5z"/><path d="m104.413 119.866c0 1.381 1.119 2.5 2.5 2.5h42.174c1.381 0 2.5-1.119 2.5-2.5s-1.119-2.5-2.5-2.5h-42.174c-1.381 0-2.5 1.119-2.5 2.5z"/><path d="m239.083 117.366h-32.166c-1.381 0-2.5 1.119-2.5 2.5s1.119 2.5 2.5 2.5h32.166c1.381 0 2.5-1.119 2.5-2.5s-1.119-2.5-2.5-2.5z"/><path d="m51.583 119.866c0-1.381-1.119-2.5-2.5-2.5h-32.166c-1.381 0-2.5 1.119-2.5 2.5s1.119 2.5 2.5 2.5h32.167c1.38 0 2.499-1.119 2.499-2.5z"/><path d="m34.911 235.514h-.733c-1.381 0-2.5 1.119-2.5 2.5s1.119 2.5 2.5 2.5h.733c1.381 0 2.5-1.119 2.5-2.5s-1.119-2.5-2.5-2.5z"/><path d="m44.408 235.514h-.733c-1.381 0-2.5 1.119-2.5 2.5s1.119 2.5 2.5 2.5h.733c1.381 0 2.5-1.119 2.5-2.5s-1.119-2.5-2.5-2.5z"/><path d="m53.906 235.514h-.733c-1.381 0-2.5 1.119-2.5 2.5s1.119 2.5 2.5 2.5h.733c1.381 0 2.5-1.119 2.5-2.5s-1.119-2.5-2.5-2.5z"/><path d="m224.91 235.514h-.733c-1.381 0-2.5 1.119-2.5 2.5s1.119 2.5 2.5 2.5h.733c1.381 0 2.5-1.119 2.5-2.5s-1.119-2.5-2.5-2.5z"/><path d="m234.408 235.514h-.733c-1.381 0-2.5 1.119-2.5 2.5s1.119 2.5 2.5 2.5h.733c1.381 0 2.5-1.119 2.5-2.5s-1.119-2.5-2.5-2.5z"/><path d="m243.906 235.514h-.733c-1.381 0-2.5 1.119-2.5 2.5s1.119 2.5 2.5 2.5h.733c1.381 0 2.5-1.119 2.5-2.5s-1.119-2.5-2.5-2.5z"/><path d="m155.34 65.17c0 1.37 1.12 2.49 2.5 2.49s2.5-1.12 2.5-2.49c0-1.38-1.12-2.51-2.5-2.51s-2.5 1.13-2.5 2.51z"/><path d="m189.167 54.165v-34.85c0-1.381-1.119-2.5-2.5-2.5h-117.334c-1.381 0-2.5 1.119-2.5 2.5v34.85c0 1.381 1.119 2.5 2.5 2.5h117.333c1.382 0 2.501-1.12 2.501-2.5zm-5-2.5h-112.334v-29.85h112.333v29.85z"/><circle cx="38" cy="131.77" r="2.5"/><path d="m248 105.459h-21.5v-18.897c0-1.381-1.119-2.5-2.5-2.5h-93.5v-16.402h17.34c1.38 0 2.5-1.12 2.5-2.49 0-1.38-1.11-2.5-2.48-2.5-.01-.01-.01-.01-.02-.01h-79.51c-4.12 0-7.49-3.37-7.5-7.49v-36.86c.01-4.12 3.38-7.49 7.5-7.5h119.34c4.13.01 7.49 3.38 7.5 7.5v36.86c-.01 4.12-3.37 7.49-7.5 7.49h-19.83c-1.38 0-2.5 1.13-2.5 2.51 0 1.37 1.12 2.49 2.5 2.49h19.83c6.89 0 12.49-5.6 12.5-12.49v-36.86c-.01-6.89-5.61-12.49-12.5-12.5h-119.34c-6.89.01-12.5 5.61-12.5 12.5v36.86c0 6.89 5.61 12.49 12.5 12.49h57.17v16.402h-93.5c-1.381 0-2.5 1.119-2.5 2.5v18.898h-21.5c-4.13 0-7.5 3.37-7.5 7.5v13.81c0 3.97 3.102 7.215 7 7.475v103.769c0 1.381 1.119 2.5 2.5 2.5h13.833c1.381 0 2.5-1.119 2.5-2.5s-1.119-2.5-2.5-2.5h-11.333v-33.638h8.833v2.172c0 4.136 3.364 7.5 7.5 7.5h22.167c4.136 0 7.5-3.364 7.5-7.5v-9.346c0-4.136-3.364-7.5-7.5-7.5h-22.167c-4.136 0-7.5 3.364-7.5 7.5v2.174h-8.833v-33.637h8.833v2.172c0 4.136 3.364 7.5 7.5 7.5h22.167c4.136 0 7.5-3.364 7.5-7.5v-9.346c0-4.136-3.364-7.5-7.5-7.5h-22.167c-4.136 0-7.5 3.364-7.5 7.5v2.174h-8.833v-23.969h15.5c1.38 0 2.5-1.12 2.5-2.5s-1.12-2.5-2.5-2.5h-20c-1.37 0-2.5-1.12-2.5-2.5v-13.81c0-1.38 1.13-2.5 2.5-2.5h50c1.38 0 2.5 1.12 2.5 2.5v13.81c0 1.38-1.12 2.5-2.5 2.5h-10c-1.38 0-2.5 1.12-2.5 2.5s1.12 2.5 2.5 2.5h10c4.14 0 7.5-3.36 7.5-7.5v-13.81c0-4.13-3.36-7.5-7.5-7.5h-23.5v-16.398h91v16.397h-31.833c-4.136 0-7.5 3.364-7.5 7.5v13.814c0 4.136 3.364 7.5 7.5 7.5h1.678v103.741c0 1.381 1.119 2.5 2.5 2.5h15.637v2.172c0 4.136 3.364 7.5 7.5 7.5h32.174c4.136 0 7.5-3.364 7.5-7.5v-9.347c0-4.136-3.364-7.5-7.5-7.5h-32.174c-4.136 0-7.5 3.364-7.5 7.5v2.175h-13.137v-33.638h13.137v2.172c0 4.136 3.364 7.5 7.5 7.5h32.174c4.136 0 7.5-3.364 7.5-7.5v-9.346c0-4.136-3.364-7.5-7.5-7.5h-32.174c-4.136 0-7.5 3.364-7.5 7.5v2.174h-13.137v-33.637h13.137v2.172c0 4.136 3.364 7.5 7.5 7.5h32.174c4.136 0 7.5-3.364 7.5-7.5v-9.346c0-4.136-3.364-7.5-7.5-7.5h-32.174c-4.136 0-7.5 3.364-7.5 7.5v2.174h-13.137v-23.966h61.989c4.136 0 7.5-3.364 7.5-7.5v-13.814c0-4.136-3.364-7.5-7.5-7.5h-31.834v-16.397h91v16.397h-23.5c-4.136 0-7.5 3.364-7.5 7.5v13.814c0 3.967 3.098 7.216 7 7.475v103.765.001s0 0 0 .001c0 1.381 1.119 2.5 2.5 2.5h13.833c1.381 0 2.5-1.119 2.5-2.5s-1.119-2.5-2.5-2.5h-11.333v-33.638h8.833v2.172c0 4.136 3.364 7.5 7.5 7.5h22.167c4.136 0 7.5-3.364 7.5-7.5v-9.346c0-4.136-3.364-7.5-7.5-7.5h-22.167c-4.136 0-7.5 3.364-7.5 7.5v2.174h-8.833v-33.637h8.83v2.171c.01 4.13 3.37 7.5 7.5 7.5h2.17c1.38 0 2.5-1.12 2.5-2.5s-1.12-2.5-2.5-2.5h-2.17c-1.37 0-2.49-1.12-2.5-2.5 0-2.22 0-4.351 0-9.35.01-1.37 1.13-2.49 2.5-2.5h22.17c1.37.01 2.5 1.13 2.5 2.5v9.35c0 1.38-1.13 2.5-2.5 2.5-1.38 0-2.5 1.12-2.5 2.5s1.12 2.5 2.5 2.5c4.13 0 7.5-3.37 7.5-7.5v-9.35c0-4.13-3.37-7.49-7.5-7.5h-22.17c-4.13.01-7.49 3.37-7.5 7.5v2.179h-8.83v-23.966h45.5c4.136 0 7.5-3.364 7.5-7.5v-13.814c0-4.137-3.364-7.501-7.5-7.501zm-221.667 89.243c0-1.378 1.122-2.5 2.5-2.5h22.167c1.378 0 2.5 1.122 2.5 2.5v9.346c0 1.378-1.122 2.5-2.5 2.5h-22.167c-1.378 0-2.5-1.122-2.5-2.5zm0-38.638c0-1.378 1.122-2.5 2.5-2.5h22.167c1.378 0 2.5 1.122 2.5 2.5v9.346c0 1.378-1.122 2.5-2.5 2.5h-22.167c-1.378 0-2.5-1.122-2.5-2.5zm92.148 77.275c0-1.378 1.122-2.5 2.5-2.5h32.174c1.379 0 2.5 1.122 2.5 2.5v9.347c0 1.378-1.121 2.5-2.5 2.5h-32.174c-1.378 0-2.5-1.122-2.5-2.5zm0-38.637c0-1.378 1.122-2.5 2.5-2.5h32.174c1.379 0 2.5 1.122 2.5 2.5v9.346c0 1.378-1.121 2.5-2.5 2.5h-32.174c-1.378 0-2.5-1.122-2.5-2.5zm0-38.638c0-1.378 1.122-2.5 2.5-2.5h32.174c1.379 0 2.5 1.122 2.5 2.5v9.346c0 1.378-1.121 2.5-2.5 2.5h-32.174c-1.378 0-2.5-1.122-2.5-2.5zm46.352-43.105v13.814c0 1.378-1.121 2.5-2.5 2.5h-68.666c-1.378 0-2.5-1.122-2.5-2.5v-13.814c0-1.378 1.122-2.5 2.5-2.5h68.667c1.378 0 2.499 1.122 2.499 2.5zm51.5 81.743c0-1.378 1.121-2.5 2.5-2.5h22.167c1.379 0 2.5 1.122 2.5 2.5v9.346c0 1.378-1.121 2.5-2.5 2.5h-22.167c-1.379 0-2.5-1.122-2.5-2.5zm34.167-67.929c0 1.378-1.121 2.5-2.5 2.5h-50c-1.379 0-2.5-1.122-2.5-2.5v-13.814c0-1.378 1.121-2.5 2.5-2.5h50c1.379 0 2.5 1.122 2.5 2.5z"/><circle cx="231" cy="170.41" r="2.5"/></g><g><path d="m32 164.979c-1.381 0-2.5-1.119-2.5-2.5v-3.483c0-1.381 1.119-2.5 2.5-2.5s2.5 1.119 2.5 2.5v3.483c0 1.381-1.119 2.5-2.5 2.5z" fill="#f9e5af"/></g><g><path d="m32 203.75c-1.381 0-2.5-1.119-2.5-2.5v-3.75c0-1.381 1.119-2.5 2.5-2.5s2.5 1.119 2.5 2.5v3.75c0 1.381-1.119 2.5-2.5 2.5z" fill="#f9e5af"/></g><g><path d="m223 164.979c-1.381 0-2.5-1.119-2.5-2.5v-3.483c0-1.381 1.119-2.5 2.5-2.5s2.5 1.119 2.5 2.5v3.483c0 1.381-1.119 2.5-2.5 2.5z" fill="#f9e5af"/></g><g><path d="m223 203.75c-1.381 0-2.5-1.119-2.5-2.5v-3.75c0-1.381 1.119-2.5 2.5-2.5s2.5 1.119 2.5 2.5v3.75c0 1.381-1.119 2.5-2.5 2.5z" fill="#f9e5af"/></g></g></svg>